<svg width="151" height="20" viewBox="0 0 151 20" fill="none" xmlns="http://www.w3.org/2000/svg">
<path d="M2.45703 13.5508C3.12109 13.9258 3.79297 14.2656 4.47266 14.5703C5.16016 14.8672 5.87109 15.1211 6.60547 15.332C7.33984 15.5352 8.10938 15.6914 8.91406 15.8008C9.72656 15.9102 10.5898 15.9648 11.5039 15.9648C12.6055 15.9648 13.543 15.8945 14.3164 15.7539C15.0898 15.6055 15.7188 15.4062 16.2031 15.1562C16.6953 14.8984 17.0508 14.5938 17.2695 14.2422C17.4961 13.8906 17.6094 13.5078 17.6094 13.0938C17.6094 12.4297 17.332 11.9062 16.7773 11.5234C16.2227 11.1328 15.3672 10.9375 14.2109 10.9375C13.7031 10.9375 13.168 10.9727 12.6055 11.043C12.043 11.1055 11.4727 11.1758 10.8945 11.2539C10.3242 11.332 9.75781 11.4062 9.19531 11.4766C8.64062 11.5391 8.11719 11.5703 7.625 11.5703C6.80469 11.5703 6.01562 11.4648 5.25781 11.2539C4.50781 11.043 3.83984 10.7266 3.25391 10.3047C2.67578 9.88281 2.21484 9.35547 1.87109 8.72266C1.52734 8.08984 1.35547 7.35156 1.35547 6.50781C1.35547 6.00781 1.42188 5.51172 1.55469 5.01953C1.69531 4.52734 1.91406 4.05859 2.21094 3.61328C2.51562 3.16016 2.90625 2.74219 3.38281 2.35938C3.85938 1.96875 4.43359 1.63281 5.10547 1.35156C5.78516 1.07031 6.56641 0.851562 7.44922 0.695312C8.33984 0.53125 9.35156 0.449219 10.4844 0.449219C11.3047 0.449219 12.1289 0.496094 12.957 0.589844C13.7852 0.675781 14.5898 0.800781 15.3711 0.964844C16.1602 1.12891 16.918 1.32812 17.6445 1.5625C18.3711 1.78906 19.0469 2.04297 19.6719 2.32422L18.043 5.32422C17.5273 5.09766 16.9727 4.89062 16.3789 4.70312C15.7852 4.50781 15.1641 4.33984 14.5156 4.19922C13.8672 4.05859 13.1953 3.94922 12.5 3.87109C11.8125 3.78516 11.1094 3.74219 10.3906 3.74219C9.36719 3.74219 8.52344 3.81641 7.85938 3.96484C7.20312 4.11328 6.67969 4.30469 6.28906 4.53906C5.89844 4.76562 5.625 5.02344 5.46875 5.3125C5.32031 5.59375 5.24609 5.875 5.24609 6.15625C5.24609 6.70312 5.49219 7.15234 5.98438 7.50391C6.47656 7.84766 7.22656 8.01953 8.23438 8.01953C8.64062 8.01953 9.10547 7.99219 9.62891 7.9375C10.1602 7.875 10.7148 7.80859 11.293 7.73828C11.8789 7.66797 12.4727 7.60547 13.0742 7.55078C13.6836 7.48828 14.2734 7.45703 14.8438 7.45703C15.9219 7.45703 16.875 7.57812 17.7031 7.82031C18.5391 8.0625 19.2383 8.41016 19.8008 8.86328C20.3633 9.30859 20.7891 9.85156 21.0781 10.4922C21.3672 11.125 21.5117 11.8359 21.5117 12.625C21.5117 13.6797 21.2656 14.6211 20.7734 15.4492C20.2891 16.2695 19.5938 16.9648 18.6875 17.5352C17.7891 18.0977 16.7031 18.5273 15.4297 18.8242C14.1562 19.1133 12.7383 19.2578 11.1758 19.2578C10.1445 19.2578 9.13672 19.1914 8.15234 19.0586C7.16797 18.9336 6.22266 18.7539 5.31641 18.5195C4.41797 18.2773 3.55859 17.9922 2.73828 17.6641C1.92578 17.3281 1.17188 16.9609 0.476562 16.5625L2.45703 13.5508ZM24.5234 9.78906C24.5234 8.40625 24.7773 7.14062 25.2852 5.99219C25.793 4.84375 26.5039 3.85938 27.418 3.03906C28.3398 2.21094 29.4414 1.57031 30.7227 1.11719C32.0117 0.664062 33.4375 0.4375 35 0.4375C36.5547 0.4375 37.9766 0.664062 39.2656 1.11719C40.5547 1.57031 41.6562 2.21094 42.5703 3.03906C43.4922 3.85938 44.207 4.84375 44.7148 5.99219C45.2227 7.14062 45.4766 8.40625 45.4766 9.78906C45.4766 11.1797 45.2227 12.457 44.7148 13.6211C44.207 14.7773 43.4922 15.7734 42.5703 16.6094C41.6562 17.4453 40.5547 18.0977 39.2656 18.5664C37.9766 19.0273 36.5547 19.2578 35 19.2578C33.4375 19.2578 32.0117 19.0273 30.7227 18.5664C29.4414 18.0977 28.3398 17.4453 27.418 16.6094C26.5039 15.7734 25.793 14.7773 25.2852 13.6211C24.7773 12.457 24.5234 11.1797 24.5234 9.78906ZM28.2383 9.78906C28.2383 10.7344 28.4062 11.5859 28.7422 12.3438C29.0859 13.1016 29.5586 13.75 30.1602 14.2891C30.7695 14.8203 31.4844 15.2305 32.3047 15.5195C33.1328 15.8086 34.0312 15.9531 35 15.9531C35.9688 15.9531 36.8633 15.8086 37.6836 15.5195C38.5117 15.2305 39.2266 14.8203 39.8281 14.2891C40.4297 13.75 40.9023 13.1016 41.2461 12.3438C41.5898 11.5859 41.7617 10.7344 41.7617 9.78906C41.7617 8.84375 41.5898 7.99609 41.2461 7.24609C40.9023 6.49609 40.4297 5.86328 39.8281 5.34766C39.2266 4.82422 38.5117 4.42578 37.6836 4.15234C36.8633 3.87891 35.9688 3.74219 35 3.74219C34.0312 3.74219 33.1328 3.87891 32.3047 4.15234C31.4844 4.42578 30.7695 4.82422 30.1602 5.34766C29.5586 5.86328 29.0859 6.49609 28.7422 7.24609C28.4062 7.99609 28.2383 8.84375 28.2383 9.78906ZM49.6016 0.683594H65.9844V3.94141H53.3164V8.73438H64.0742V11.793H53.3164V19H49.6016V0.683594ZM75.0898 3.94141H68.3281V0.683594H85.5664V3.94141H78.8047V19H75.0898V3.94141ZM89.5391 0.683594H105.137V3.94141H93.2539V7.59766H103.777V10.6562H93.2539V15.7539H105.383V19H89.5391V0.683594ZM108.395 9.73047C108.395 8.42578 108.641 7.21094 109.133 6.08594C109.625 4.95312 110.336 3.97266 111.266 3.14453C112.203 2.30859 113.344 1.65234 114.688 1.17578C116.039 0.699219 117.566 0.460938 119.27 0.460938C120.762 0.460938 122.129 0.613281 123.371 0.917969C124.621 1.21484 125.781 1.67187 126.852 2.28906L125.141 5.10156C124.82 4.89062 124.449 4.70312 124.027 4.53906C123.613 4.375 123.168 4.23828 122.691 4.12891C122.223 4.01172 121.734 3.92188 121.227 3.85938C120.727 3.79688 120.23 3.76562 119.738 3.76562C118.551 3.76562 117.492 3.91406 116.562 4.21094C115.633 4.5 114.848 4.91016 114.207 5.44141C113.574 5.96484 113.09 6.59375 112.754 7.32812C112.426 8.05469 112.262 8.85547 112.262 9.73047C112.262 10.6367 112.434 11.4688 112.777 12.2266C113.121 12.9844 113.617 13.6406 114.266 14.1953C114.922 14.7422 115.719 15.1719 116.656 15.4844C117.602 15.7891 118.668 15.9414 119.855 15.9414C120.395 15.9414 120.93 15.9023 121.461 15.8242C121.992 15.7461 122.504 15.6406 122.996 15.5078C123.496 15.3672 123.977 15.2031 124.438 15.0156C124.898 14.8203 125.328 14.6094 125.727 14.3828L127.438 17.1953C126.438 17.8359 125.281 18.3398 123.969 18.707C122.656 19.0664 121.262 19.2461 119.785 19.2461C117.902 19.2461 116.25 19.0039 114.828 18.5195C113.406 18.0273 112.219 17.3555 111.266 16.5039C110.312 15.6445 109.594 14.6367 109.109 13.4805C108.633 12.3164 108.395 11.0664 108.395 9.73047ZM131.527 0.683594H135.242V5.46484H146.633V0.683594H150.359V19H146.633V8.64062H135.242V19H131.527V0.683594Z" fill="white"/>
</svg>
